<?xml version="1.0" encoding="utf-8"?>
<!-- Generator: Adobe Illustrator 24.3.0, SVG Export Plug-In . SVG Version: 6.00 Build 0)  -->
<svg version="1.1" xmlns="http://www.w3.org/2000/svg" xmlns:xlink="http://www.w3.org/1999/xlink" x="0px" y="0px"
	 viewBox="0 0 4245.81 4245.81" style="enable-background:new 0 0 4245.81 4245.81;" xml:space="preserve">
<style type="text/css">
	.st0{fill:#FFFFFF;}
	.st1{fill:#D8DEEA;}
	.st2{opacity:0.6;}
	.st3{fill:#CECDDB;}
	.st4{fill:#A9E1D4;}
	.st5{opacity:0.5;}
	.st6{fill:#B1B0C5;}
	.st7{fill:#CFFFF1;}
	.st8{clip-path:url(#SVGID_3_);}
	.st9{fill:#FCFDFE;}
	.st10{clip-path:url(#SVGID_5_);}
	.st11{fill:url(#SVGID_6_);}
	.st12{fill:url(#SVGID_7_);}
	.st13{fill:url(#SVGID_8_);}
	.st14{fill:#D8DEE8;}
	.st15{opacity:0.48;fill:#FFFFFF;}
	.st16{fill:url(#SVGID_9_);}
	.st17{opacity:0.3;fill:url(#SVGID_10_);}
	.st18{fill:url(#SVGID_11_);}
	.st19{opacity:0.74;fill:#FFFFFF;}
	.st20{fill:url(#SVGID_12_);}
	.st21{fill:url(#SVGID_13_);}
	.st22{fill:url(#SVGID_14_);}
	.st23{fill:url(#SVGID_15_);}
	.st24{fill:url(#SVGID_16_);}
	.st25{fill:url(#SVGID_17_);}
	.st26{fill:url(#SVGID_18_);}
	.st27{fill:url(#SVGID_19_);}
	.st28{opacity:0.3;fill:url(#SVGID_20_);}
	.st29{fill:url(#SVGID_21_);}
	.st30{opacity:0.4;fill:url(#SVGID_22_);}
	.st31{fill:url(#SVGID_23_);}
	.st32{fill:url(#SVGID_24_);}
	.st33{fill:url(#SVGID_25_);}
	.st34{fill:url(#SVGID_26_);}
	.st35{fill:url(#SVGID_27_);}
	.st36{fill:url(#SVGID_28_);}
	.st37{opacity:0.3;fill:url(#SVGID_29_);}
	.st38{fill:url(#SVGID_30_);}
	.st39{fill:url(#SVGID_31_);}
	.st40{fill:url(#SVGID_32_);}
	.st41{opacity:0.3;fill:url(#SVGID_33_);}
	.st42{fill:url(#SVGID_34_);}
	.st43{fill:url(#SVGID_35_);}
	.st44{fill:url(#SVGID_36_);}
	.st45{fill:url(#SVGID_37_);}
	.st46{fill:url(#SVGID_38_);}
	.st47{fill:url(#SVGID_39_);}
	.st48{fill:url(#SVGID_40_);}
	.st49{fill:url(#SVGID_41_);}
	.st50{fill:url(#SVGID_42_);}
	.st51{fill:url(#SVGID_43_);}
	.st52{opacity:0.3;fill:url(#SVGID_44_);}
</style>
<g id="Background">
	<g>
		<g>
			<rect x="-7.21" y="-7.21" class="st0" width="4260.23" height="4260.23"/>
		</g>
	</g>
</g>
<g id="Illustration">
	<g>
		<g>
			<g>
				<ellipse class="st1" cx="2103.15" cy="3528.59" rx="1722.46" ry="201.51"/>
			</g>
		</g>
		<g>
			<g class="st2">
				<path class="st3" d="M2066.25,3073.43c0,0,531.31-1881.34,1036.39-1717.99c505.08,163.35-635.35,1181.78-772.67,1734.35
					L2066.25,3073.43z"/>
			</g>
			<g>
				<g>
					<path class="st4" d="M2526.64,2615.01c0,0,917.17-1589.48,1425.11-1319.16c507.93,270.33-897.63,926.05-1147.04,1397.4
						L2526.64,2615.01z"/>
				</g>
				<g>
					<g>
						<path class="st0" d="M2681.8,2660.15c222.41-439.47,733.48-909.16,1107.75-1157.19l-8.13-12.26
							c-379.71,251.57-890.21,723.09-1112.74,1162.8L2681.8,2660.15z"/>
					</g>
				</g>
			</g>
			<g>
				<g>
					<g>
						<path class="st3" d="M3867.43,2868.32c-220.41,63.27-160.73,399.31-419.75,353.46c-259.04-46-238.99-63.71-354.2,55.14
							c0,0-40.61,110.16-140.78,134.69c-395.23,96.77-981.33-458.25-585.81-811.9c28.56-25.54,71.81-37.51,119.86-48.35
							c260.63-58.61,350.73,56.82,537.55-267.34c186.89-324.25,498.08,102.1,673.66,74.69c175.57-27.41,327.7-90.73,477.76,87.27
							C4325.81,2624.13,4087.87,2805.21,3867.43,2868.32z"/>
					</g>
				</g>
				<g class="st5">
					<g>
						<g>
							<path class="st0" d="M2522.91,3021.49l-9.23-11.93c5.25-4.07,539.35-408.4,1697.27-512.54l1.35,15.03
								C3058.74,2615.8,2528.15,3017.44,2522.91,3021.49z"/>
						</g>
					</g>
					<g>
						<g>
							<path class="st0" d="M3214.72,2525.71c-162.11-127.51-196.29-235.01-197.67-239.52l14.42-4.41
								c0.33,1.06,34.6,107.82,192.57,232.08L3214.72,2525.71z"/>
						</g>
					</g>
					<g>
						<g>
							<path class="st0" d="M3252,2686.31c-87.52-132.9-6.76-367.77,68.86-497.86l13.05,7.56c-1.81,3.12-179.68,314.41-69.3,482.01
								L3252,2686.31z"/>
						</g>
					</g>
					<g>
						<g>
							<path class="st0" d="M3525.29,2616.17l10.06-11.23c2.19,1.97,223.48,196.5,529.04,166.94l1.45,15
								C3858.01,2806.99,3638.85,2717.9,3525.29,2616.17z"/>
						</g>
					</g>
					<g>
						<g>
							<path class="st0" d="M3728.98,2977.87c-100.96-98.63-124.87-223.93-106.89-296.82l14.64,3.65
								c-0.36,1.47-34.61,148.16,102.8,282.39L3728.98,2977.87z"/>
						</g>
					</g>
				</g>
			</g>
		</g>
		<g>
			<g>
				<path class="st3" d="M1991.25,3025.89c0,0-799.91-1623.35-1232.24-1389.74c-432.34,233.6,777.03,969.02,994.92,1448.96
					L1991.25,3025.89z"/>
			</g>
			<g>
				<g>
					<path class="st6" d="M1580.2,2712.74c0,0-976.16-1236.22-1374.03-943.61s877.26,675.17,1147.56,1044.55L1580.2,2712.74z"/>
				</g>
				<g>
					<g>
						<path class="st0" d="M1454.01,2770.32c-243.96-346.44-736.81-681.61-1084.39-845.41l5.38-11.42
							c354.21,166.8,846.13,504.21,1089.33,849.56L1454.01,2770.32z"/>
					</g>
				</g>
			</g>
			<g>
				<g>
					<g>
						<path class="st4" d="M366.61,2916.23c213.11,61.17,155.41,386.08,405.84,341.75c250.46-44.47,231.07-61.6,342.47,53.31
							c0,0,39.27,106.51,136.12,130.23c382.14,93.56,948.82-443.07,566.4-785c-27.61-24.69-69.43-36.27-115.88-46.75
							c-252-56.67-339.11,54.94-519.74-258.48c-180.69-313.5-481.58,98.72-651.34,72.22c-169.76-26.5-316.84-87.72-461.94,84.38
							C-76.58,2680.13,153.48,2855.21,366.61,2916.23z"/>
					</g>
				</g>
				<g>
					<g>
						<g>
							<path class="st0" d="M1666.58,3064.33l8.92-11.53c-5.08-3.94-521.48-394.87-1641.04-495.56l-1.31,14.53
								C1148.51,2672.08,1661.52,3060.42,1666.58,3064.33z"/>
						</g>
					</g>
					<g>
						<g>
							<path class="st0" d="M997.7,2584.98c156.74-123.28,189.79-227.23,191.12-231.59l-13.95-4.26
								c-0.31,1.03-33.45,104.25-186.19,224.39L997.7,2584.98z"/>
						</g>
					</g>
					<g>
						<g>
							<path class="st0" d="M961.66,2740.25c84.59-128.45,6.6-355.51-66.58-481.36l-12.61,7.31c1.75,3.02,173.73,303.99,67,466.04
								L961.66,2740.25z"/>
						</g>
					</g>
					<g>
						<g>
							<path class="st0" d="M697.42,2672.43l-9.73-10.86c-2.12,1.9-216.08,189.99-511.52,161.41l-1.4,14.51
								C370.01,2856.38,583.07,2774.77,697.42,2672.43z"/>
						</g>
					</g>
					<g>
						<g>
							<path class="st0" d="M500.47,3022.15c97.61-95.36,120.73-216.51,103.35-286.99l-14.15,3.53
								c0.35,1.42,33.46,143.25-99.4,273.03L500.47,3022.15z"/>
						</g>
					</g>
				</g>
			</g>
		</g>
		<g>
			<path class="st7" d="M3239.96,2190.46c-45.38-297.01-81.8-502.27-245.66-614.74c-276.38-189.72-585.05,118.27-976.56-88.4
				c-192.76-101.75-199.99-219.73-363.25-235.38c-288.83-27.7-525.37,316.99-545.87,346.55
				c-124.55,179.61-166.16,398.61-115.66,607.41c32.79,135.61,54.95,275.97,48.87,415.32c-10.58,242.53-4.49,468.91,230.87,613.55
				c210.16,129.15,474.64,243.05,726.97,263c171.48,13.56,363.78-8.38,529.05-53.02
				C3370.98,3217.22,3302.35,2598.83,3239.96,2190.46z"/>
			<g>
				<g>
					<g>
						<g>
							<defs>
								<path id="SVGID_1_" d="M2154.04,3060.25c18.87,1.08,60.87-13.2,70.28-21.44c62.65-54.81,186.6-149.82,197.74-237.11
									c1.9-14.91-61.42-40.98-68.11-56.25c-36.34-26.42-50.58-33.33-72.79-75.42c-65.56-124.26,168.45-290.46-46.01-404.66
									c-157.09-83.64-308.88-52.64-242.22-308.38c66.66-255.74-50.07-766.54-357.66-637.22
									c-176.53,74.22-58.53,324.53-169.88,471.88c-105.81,140.02-64.23,279.47,82.42,403c146.65,123.53,45.61,178.31-29.66,316.12
									c-90.42,165.54,174.92,247.75,300.66,275.26C1920.08,2808.17,2162.97,2932.89,2154.04,3060.25z"/>
							</defs>
							<linearGradient id="SVGID_2_" gradientUnits="userSpaceOnUse" x1="1750.4183" y1="1346.5454" x2="2283.2891" y2="4753.1211">
								<stop  offset="3.597120e-03" style="stop-color:#47BDA1"/>
								<stop  offset="1" style="stop-color:#47BDA1"/>
							</linearGradient>
							<use xlink:href="#SVGID_1_"  style="overflow:visible;fill:url(#SVGID_2_);"/>
							<clipPath id="SVGID_3_">
								<use xlink:href="#SVGID_1_"  style="overflow:visible;"/>
							</clipPath>
							<g class="st8">
								<g>
									<path class="st9" d="M2319.49,2927.26l2.4-3.22c-496.78-369.29-720.62-993.3-598.78-1669.23l-3.96-0.71
										c-57.74,320.34-36.67,641.23,60.93,927.98C1882.69,2483.53,2069.22,2741.22,2319.49,2927.26z"/>
									<path class="st9" d="M1472.69,2575.26c167.85-22.16,432.56,26.13,590.07,107.65l1.85-3.57
										c-158.14-81.83-423.9-130.31-592.44-108.06L1472.69,2575.26z"/>
									<path class="st9" d="M2222.8,2853.65l3.2-2.44c-55.85-73.35-72.46-172.12-49.39-293.55
										c16.92-89.04,54.38-187.97,111.36-294.05l-3.54-1.9c-57.17,106.44-94.77,205.76-111.76,295.2
										C2149.36,2679.52,2166.23,2779.35,2222.8,2853.65z"/>
									<path class="st9" d="M1767.81,2140.83l3.32-2.27c-98.16-143.67-268.97-209.28-394.98-239.01l-0.92,3.91
										C1500.55,1933.04,1670.38,1998.22,1767.81,2140.83z"/>
									<path class="st9" d="M1692.03,1749.79l3.99,0.45c22.19-194.76,164.57-343.3,247.47-414.51l-2.62-3.05
										C1857.53,1404.28,1714.38,1553.66,1692.03,1749.79z"/>
								</g>
							</g>
						</g>
					</g>
				</g>
				<g>
					<g>
						<g>
							<defs>
								<path id="SVGID_4_" d="M2145.69,3168.62c17.93-5.97,51.67-34.77,57.38-45.9c37.94-74.09,117.99-208.2,96.07-293.42
									c-3.74-14.56-72.22-15.37-84.08-27.08c-43.53-11.12-59.32-12.27-95.52-43.17c-106.85-91.22,49.13-332.16-192.36-358.97
									c-176.88-19.64-306.45,65.29-339.07-196.98c-32.62-262.27-329.93-693.71-567.91-459.83
									c-136.58,134.23,65.6,323.18,16.62,501.25c-46.54,169.21,43.65,283.42,225.58,343.97
									c181.93,60.55,108.31,148.81,89.32,304.69c-22.81,187.24,254.13,165.53,381.13,144.6
									C1835.12,3020.91,2106.9,3046.99,2145.69,3168.62z"/>
							</defs>
							<use xlink:href="#SVGID_4_"  style="overflow:visible;fill:#FE8794;"/>
							<clipPath id="SVGID_5_">
								<use xlink:href="#SVGID_4_"  style="overflow:visible;"/>
							</clipPath>
							<g class="st10">
								<g>
									<path class="st9" d="M2250.25,2983.89l1.03-3.88c-598.11-159.45-1036.8-656.49-1173.5-1329.57l-3.94,0.8
										c64.79,318.99,203,609.35,399.71,839.7C1680.35,2733.09,1948.93,2903.55,2250.25,2983.89z"/>
									<path class="st9" d="M1333.31,2969.9c147.77-82.65,411.57-135.65,588.06-118.15l0.4-4
										c-177.19-17.57-442.04,35.65-590.42,118.64L1333.31,2969.9z"/>
									<path class="st9" d="M2133.2,2951.24l2.07-3.45c-79.01-47.5-130.96-133.13-154.43-254.49
										c-17.2-88.99-18.97-194.76-5.25-314.39l-3.99-0.46c-13.77,120.03-11.98,226.22,5.3,315.6
										C2000.58,2816.6,2053.17,2903.12,2133.2,2951.24z"/>
									<path class="st9" d="M1446.9,2457.15l2.25-3.33c-144.32-97.2-327.28-95-455.36-76.04l0.59,3.98
										C1121.75,2362.89,1303.65,2360.67,1446.9,2457.15z"/>
									<path class="st9" d="M1231.92,2121.83l3.88-1.05c-51.4-189.17,25.98-379.82,76.68-476.63l-3.56-1.87
										C1257.95,1739.61,1180.16,1931.34,1231.92,2121.83z"/>
								</g>
							</g>
						</g>
					</g>
				</g>
			</g>
			<g>
				<linearGradient id="SVGID_6_" gradientUnits="userSpaceOnUse" x1="2000.8398" y1="3444.9468" x2="1843.5033" y2="3511.0281">
					<stop  offset="0" style="stop-color:#218E9B"/>
					<stop  offset="0.9964" style="stop-color:#218E9B"/>
				</linearGradient>
				<path class="st11" d="M3294.45,3358.69L1054.91,3339v58.24c0,15.81,9.77,29.25,23,31.65l633.27,114.69
					c7.52,1.36,15.14,1.72,22.72,1.08l1536.21-130.76c13.71-1.17,24.34-14.65,24.34-30.89V3358.69z"/>
				<g>
					<linearGradient id="SVGID_7_" gradientUnits="userSpaceOnUse" x1="1744.8436" y1="2745.4922" x2="1581.7115" y2="2814.0076">
						<stop  offset="0" style="stop-color:#218E9B"/>
						<stop  offset="0.9964" style="stop-color:#218E9B"/>
					</linearGradient>
					<path class="st12" d="M2481.73,3264.27l-1403.66,106.55c-25.12,1.91-45.54-18.35-45.54-45.25V2247.74
						c0-26.9,20.42-48.71,45.54-48.71h1403.66c20.69,0,37.42,19.71,37.42,44.03v974.33
						C2519.16,3241.72,2502.42,3262.7,2481.73,3264.27z"/>
					<linearGradient id="SVGID_8_" gradientUnits="userSpaceOnUse" x1="1054.9143" y1="2784.988" x2="2541.5366" y2="2784.988">
						<stop  offset="0" style="stop-color:#218E9B"/>
						<stop  offset="0.9964" style="stop-color:#218E9B"/>
					</linearGradient>
					<path class="st13" d="M2504.11,3264.27l-1403.66,106.55c-25.12,1.91-45.54-18.35-45.54-45.25V2247.74
						c0-26.9,20.42-48.71,45.54-48.71h1403.66c20.69,0,37.42,19.71,37.42,44.03v974.33
						C2541.54,3241.72,2524.81,3262.7,2504.11,3264.27z"/>
					<path class="st14" d="M2460.38,3195.58l-1307.36,92.55c-20.44,1.45-37.05-15.18-37.05-37.14v-943.63
						c0-21.96,16.61-39.84,37.05-39.93l1307.36-5.81c17.07-0.08,30.88,16.08,30.88,36.08v859.48
						C2491.26,3177.18,2477.46,3194.37,2460.38,3195.58z"/>
					<path class="st0" d="M1851.86,2228.51c0,10.01-7.22,18.16-16.15,18.19c-8.93,0.03-16.18-8.08-16.18-18.12
						s7.25-18.18,16.18-18.19C1844.63,2210.38,1851.86,2218.5,1851.86,2228.51z"/>
					<path class="st15" d="M2165.92,2968.66c-108.21-62.54-193.29,16.7-275.41-61.48c-49.78-47.4-25.34-82.75-86.6-153.58
						c-67.85-78.46-112.02-52.08-180.2-122.69c-86.21-89.28-43.09-158.75-117.36-222.85c-90.09-77.76-187.25-5.79-273.01-80.37
						c-36.99-32.17-57.28-78.93-67.88-128.66h-83.91c-14.7,0-26.65,12.8-26.65,28.59v1117.26c0,15.79,11.94,27.68,26.65,26.56
						l1430.56-109.07c7.02-0.54,13.25-4.94,17.24-11.32c-104.72-4.1-169.06-41.81-210.18-80.79
						C2238.73,3094,2252.68,3018.8,2165.92,2968.66z"/>
				</g>
				<linearGradient id="SVGID_9_" gradientUnits="userSpaceOnUse" x1="1054.9143" y1="3375.4807" x2="3294.45" y2="3375.4807">
					<stop  offset="0" style="stop-color:#218E9B"/>
					<stop  offset="0.9964" style="stop-color:#218E9B"/>
				</linearGradient>
				<path class="st16" d="M2560.06,3259.44l-1505.14,112.15l656.27,118.85c7.52,1.36,15.14,1.72,22.72,1.08l1560.54-132.84
					L2584,3260.2C2576.06,3259.1,2568.04,3258.85,2560.06,3259.44z"/>
				<linearGradient id="SVGID_10_" gradientUnits="userSpaceOnUse" x1="1274.5383" y1="3356.9624" x2="2915.4321" y2="3356.9624">
					<stop  offset="0" style="stop-color:#218E9B"/>
					<stop  offset="0.9964" style="stop-color:#218E9B"/>
				</linearGradient>
				<polygon class="st17" points="1274.54,3374.41 2527.62,3279.65 2915.43,3332.98 1673.15,3434.27 				"/>
			</g>
			<g>
				<g>
					<g>
						<linearGradient id="SVGID_11_" gradientUnits="userSpaceOnUse" x1="2413.8064" y1="1502.5179" x2="1085.8387" y2="4158.4478">
							<stop  offset="0" style="stop-color:#47BDA1"/>
							<stop  offset="0.9964" style="stop-color:#47BDA1"/>
						</linearGradient>
						<path class="st18" d="M2574.42,1813.91l-1225.34-40.27c-41.09-1.35-74.54,31.06-74.54,72.4v1194.27
							c0,41.34,33.45,73.42,74.54,71.67l1225.34-52.32c35.44-1.51,64.06-33.68,64.06-71.85V1885.13
							C2638.48,1846.96,2609.86,1815.08,2574.42,1813.91z"/>
						<path class="st19" d="M1349.08,3088.19c-27.95,1.16-50.67-20.69-50.67-48.79V1846.73c0-28.1,22.72-50.17,50.67-49.29
							l1225.34,38.62c24.14,0.76,43.66,22.47,43.66,48.48v1104.06c0,26.01-19.52,47.91-43.66,48.91L1349.08,3088.19z"/>
						<linearGradient id="SVGID_12_" gradientUnits="userSpaceOnUse" x1="1839.457" y1="1419.5734" x2="2070.196" y2="2342.5322">
							<stop  offset="0" style="stop-color:#47BDA1"/>
							<stop  offset="0.9964" style="stop-color:#47BDA1"/>
						</linearGradient>
						<path class="st20" d="M2574.42,1813.91l-1225.34-40.27c-41.09-1.35-74.54,31.06-74.54,72.4v53.7l1363.94,34.96v-49.58
							C2638.48,1846.96,2609.86,1815.08,2574.42,1813.91z"/>
						<path class="st0" d="M1407.07,1842.65c0,13.43-10.81,24.02-24.17,23.65c-13.38-0.37-24.23-11.59-24.23-25.05
							s10.86-24.05,24.23-23.64C1396.26,1818.01,1407.07,1829.22,1407.07,1842.65z"/>
						<path class="st0" d="M1491.43,1845.1c0,13.36-10.71,23.9-23.94,23.54c-13.25-0.37-24-11.53-24-24.93
							c0-13.4,10.75-23.94,24-23.54C1480.72,1820.58,1491.43,1831.74,1491.43,1845.1z"/>
						<path class="st0" d="M1574.99,1847.53c0,13.3-10.61,23.79-23.71,23.43c-13.12-0.36-23.77-11.47-23.77-24.81
							s10.65-23.83,23.77-23.43C1564.38,1823.12,1574.99,1834.23,1574.99,1847.53z"/>
						<g class="st5">
							<path class="st0" d="M2098.12,2273.03c-143.12-208.25-390.84-141.99-547.55-372.09c-28.26-41.5-47.44-83.72-60.59-122.66
								l-140.9-4.63c-41.09-1.35-74.54,31.06-74.54,72.4v1194.27c0,41.34,33.45,73.42,74.54,71.67l1180.46-50.41
								c-27.04-39-262.57-183.46-323.42-405.27C2150.48,2453.48,2184.47,2398.67,2098.12,2273.03z"/>
						</g>
					</g>
					<g>
						<polygon class="st0" points="2571.89,2253.79 1365.93,2252.35 1365.93,2212.94 2571.89,2217.82 						"/>
						<polygon class="st0" points="2571.89,2169.93 1365.93,2159.68 1365.93,2058.64 2571.89,2077.72 						"/>
						<g>
							<g>
								<path class="st0" d="M1552.55,2466.88l-159.96,0.94v-152.82l159.96,0.19V2466.88z M1411.25,2446.89l117.3-0.57v-110.43
									l-117.3-0.04V2446.89z"/>
							</g>
							<polygon class="st0" points="2545.47,2355.98 1619.2,2356.51 1619.2,2315.28 2545.47,2316.25 							"/>
							<polygon class="st0" points="2545.47,2419.98 1619.2,2422.95 1619.2,2384.01 2545.47,2382.46 							"/>
						</g>
						<g>
							<g>
								<path class="st0" d="M1552.55,2692.11l-159.96,2.63v-152.82l159.96-1.49V2692.11z M1411.25,2673.6l117.3-1.82v-110.43
									l-117.3,1.21V2673.6z"/>
							</g>
							<polygon class="st0" points="2545.47,2572.26 1619.2,2581.03 1619.2,2539.8 2545.47,2532.53 							"/>
							<polygon class="st0" points="2545.47,2636.26 1619.2,2647.47 1619.2,2608.53 2545.47,2598.74 							"/>
						</g>
						<g>
							<g>
								<path class="st0" d="M1552.55,2917.33l-159.96,4.32v-152.82l159.96-3.18V2917.33z M1411.25,2902.62l117.3-3.09V2786.8
									l-117.3,2.46V2902.62z"/>
							</g>
							<polygon class="st0" points="2545.47,2788.54 1619.2,2805.55 1619.2,2764.32 2545.47,2748.82 							"/>
							<polygon class="st0" points="2545.47,2852.55 1619.2,2871.99 1619.2,2833.05 2545.47,2815.03 							"/>
						</g>
					</g>
				</g>
				<g>
					<linearGradient id="SVGID_13_" gradientUnits="userSpaceOnUse" x1="1468.3767" y1="2626.3823" x2="1468.3767" y2="2339.9734">
						<stop  offset="0" style="stop-color:#47BDA1"/>
						<stop  offset="0.9964" style="stop-color:#47BDA1"/>
					</linearGradient>
					<path class="st21" d="M1448.19,2459.81c-4.55,0.03-8.94-1.66-12.19-4.74l-48.05-45.46c-6.77-6.41-6.77-16.84,0-23.29
						c6.77-6.44,17.73-6.46,24.49-0.06l33.35,31.63l76.99-105.96c5.38-7.41,16.02-9.23,23.77-4.07c7.74,5.15,9.65,15.33,4.29,22.73
						l-88.5,122.06c-2.91,4.01-7.53,6.6-12.61,7.06C1449.22,2459.78,1448.7,2459.81,1448.19,2459.81z"/>
				</g>
				<g>
					<linearGradient id="SVGID_14_" gradientUnits="userSpaceOnUse" x1="1472.5676" y1="2853.9741" x2="1472.5676" y2="2567.5652">
						<stop  offset="0" style="stop-color:#47BDA1"/>
						<stop  offset="0.9964" style="stop-color:#47BDA1"/>
					</linearGradient>
					<path class="st22" d="M1452.38,2687.4c-4.55,0.03-8.94-1.66-12.19-4.74l-48.05-45.46c-6.77-6.41-6.77-16.84,0-23.29
						c6.77-6.44,17.73-6.46,24.49-0.06l33.35,31.63l76.99-105.96c5.38-7.41,16.02-9.23,23.77-4.07c7.74,5.15,9.65,15.33,4.29,22.73
						l-88.5,122.06c-2.91,4.01-7.53,6.6-12.61,7.06C1453.41,2687.37,1452.89,2687.4,1452.38,2687.4z"/>
				</g>
			</g>
			<g>
				<g>
					<linearGradient id="SVGID_15_" gradientUnits="userSpaceOnUse" x1="2465.9502" y1="1854.6077" x2="2140.2524" y2="1959.1339">
						<stop  offset="0" style="stop-color:#FCB148"/>
						<stop  offset="0.0521" style="stop-color:#FDBA46"/>
						<stop  offset="0.1424" style="stop-color:#FFC244"/>
						<stop  offset="0.3183" style="stop-color:#FFC444"/>
						<stop  offset="0.4849" style="stop-color:#FDB946"/>
						<stop  offset="0.7754" style="stop-color:#F99C4D"/>
						<stop  offset="0.8658" style="stop-color:#F8924F"/>
						<stop  offset="1" style="stop-color:#F8924F"/>
					</linearGradient>
					<path class="st23" d="M2840.9,1842.79c0,151.1-118.15,269.95-269.15,265.32c-157.15-4.83-289.32-140.55-289.32-302.97
						s132.17-280.32,289.32-263.96C2722.75,1556.91,2840.9,1691.69,2840.9,1842.79z"/>
					<linearGradient id="SVGID_16_" gradientUnits="userSpaceOnUse" x1="2729.4207" y1="1530.4084" x2="2438.658" y2="2171.8855">
						<stop  offset="0" style="stop-color:#FFDB44"/>
						<stop  offset="1" style="stop-color:#FEEF06"/>
					</linearGradient>
					<path class="st24" d="M2881.7,1829.76c0,151.1-118.15,269.95-269.15,265.32c-157.15-4.83-289.32-140.55-289.32-302.97
						c0-162.42,132.17-280.32,289.32-263.96C2763.55,1543.88,2881.7,1678.67,2881.7,1829.76z"/>
					<linearGradient id="SVGID_17_" gradientUnits="userSpaceOnUse" x1="2675.9348" y1="2207.7375" x2="2619.8315" y2="1901.2473">
						<stop  offset="0" style="stop-color:#FCB148"/>
						<stop  offset="0.0521" style="stop-color:#FDBA46"/>
						<stop  offset="0.1424" style="stop-color:#FFC244"/>
						<stop  offset="0.3183" style="stop-color:#FFC444"/>
						<stop  offset="0.4849" style="stop-color:#FDB946"/>
						<stop  offset="0.7754" style="stop-color:#F99C4D"/>
						<stop  offset="0.8658" style="stop-color:#F8924F"/>
						<stop  offset="1" style="stop-color:#F8924F"/>
					</linearGradient>
					<path class="st25" d="M2869.85,1828.96c0,144.44-113.05,257.87-257.3,253.2c-149.85-4.85-275.67-134.38-275.67-289.13
						c0-154.75,125.82-267.32,275.67-251.96C2756.8,1555.85,2869.85,1684.52,2869.85,1828.96z"/>
					<linearGradient id="SVGID_18_" gradientUnits="userSpaceOnUse" x1="2556.9849" y1="1711.6494" x2="2788.1941" y2="2202.4622">
						<stop  offset="0" style="stop-color:#FCB148"/>
						<stop  offset="0.0521" style="stop-color:#FDBA46"/>
						<stop  offset="0.1424" style="stop-color:#FFC244"/>
						<stop  offset="0.3183" style="stop-color:#FFC444"/>
						<stop  offset="0.4849" style="stop-color:#FDB946"/>
						<stop  offset="0.7754" style="stop-color:#F99C4D"/>
						<stop  offset="0.8658" style="stop-color:#F8924F"/>
						<stop  offset="1" style="stop-color:#F8924F"/>
					</linearGradient>
					<path class="st26" d="M2861.36,1828.39c0,139.68-109.39,249.23-248.81,244.55c-144.65-4.86-265.95-129.96-265.95-279.26
						s121.3-258.04,265.95-243.4C2751.98,1564.41,2861.36,1688.71,2861.36,1828.39z"/>
					<g>
						<linearGradient id="SVGID_19_" gradientUnits="userSpaceOnUse" x1="2547.7734" y1="1606.0328" x2="2664.0334" y2="2041.7545">
							<stop  offset="0" style="stop-color:#FFDB44"/>
							<stop  offset="1" style="stop-color:#FEEF06"/>
						</linearGradient>
						<path class="st27" d="M2611.12,1597.81L2611.12,1597.81c7.42,0.71,13.42,7.39,13.42,14.92v25.72
							c14.84,1.66,29.69,4.24,44.57,7.73c10.97,2.58,21.87,5.65,32.69,9.21c6.49,2.13,10.9,8.68,10.24,15.43l-3.16,32.25
							c-0.84,8.56-9.3,13.58-17.26,10.03c-7.13-3.18-14.44-5.9-21.93-8.17c-13.07-3.96-26.86-6.53-41.36-7.73l-3.79-0.31v73.65
							c38.7,10.83,67.13,25.4,85.5,43.72c18.28,18.23,27.39,40.96,27.39,68.24c0,29.5-10.07,53.13-30.29,70.95
							c-20.33,17.91-48.83,27.99-85.68,30.17v28.38c0,7.54-6.01,13.41-13.44,13.11l-0.24-0.01c-7.44-0.3-13.48-6.67-13.48-14.23v-28
							l-5.98-0.27c-17.28-0.78-33.83-2.54-49.64-5.29c-11.71-2.04-23.15-4.67-34.3-7.89c-6.75-1.95-11.38-8.38-10.76-15.28
							l3.72-41.45c0.8-8.96,9.8-14.18,18.33-10.81c9.93,3.92,19.99,7.22,30.17,9.9c15.86,4.18,31.94,6.87,48.23,8.06l0.24-81.93
							c-37.15-9.19-64.97-22.81-83.24-40.84c-18.36-18.12-27.57-41.31-27.57-69.51c0-29.18,9.99-51.7,29.89-67.51
							c19.8-15.73,47.95-23.55,84.27-23.53v-26.29C2597.65,1602.66,2603.69,1597.1,2611.12,1597.81z M2597.65,1696.12
							c-11.48,0.84-20.44,3.99-26.84,9.46c-6.42,5.48-9.63,12.86-9.63,22.11c0,8.76,2.97,16.09,8.91,21.97
							c5.93,5.87,15.13,10.56,27.57,14.06V1696.12z M2621.46,1844.47v75.13c12.48,0.02,22.05-2.96,28.73-8.93
							c6.67-5.97,10-14.39,10-25.29c0-9.93-3.1-18.17-9.29-24.73C2644.69,1854.08,2634.89,1848.69,2621.46,1844.47z"/>
					</g>
					<linearGradient id="SVGID_20_" gradientUnits="userSpaceOnUse" x1="2488.9641" y1="1743.4125" x2="2719.7068" y2="2233.2354">
						<stop  offset="0" style="stop-color:#FCB148"/>
						<stop  offset="0.0521" style="stop-color:#FDBA46"/>
						<stop  offset="0.1424" style="stop-color:#FFC244"/>
						<stop  offset="0.3183" style="stop-color:#FFC444"/>
						<stop  offset="0.4849" style="stop-color:#FDB946"/>
						<stop  offset="0.7754" style="stop-color:#F99C4D"/>
						<stop  offset="0.8658" style="stop-color:#F8924F"/>
						<stop  offset="1" style="stop-color:#F8924F"/>
					</linearGradient>
					<path class="st28" d="M2567.52,1862.59c8.41-83.03,84.71-118.18,74.75-194.55c-6.14-47.07-41.82-86.74-81.61-117.71
						c-120.72,12.66-214.06,112.62-214.06,243.36c0,149.3,121.3,274.4,265.95,279.26c14.04,0.47,27.76-0.26,41.1-2.01
						C2596.2,2013.77,2560.3,1933.93,2567.52,1862.59z"/>
				</g>
				<g>
					<linearGradient id="SVGID_21_" gradientUnits="userSpaceOnUse" x1="2264.3191" y1="1901.5917" x2="2649.157" y2="1374.1703">
						<stop  offset="0" style="stop-color:#218E9B"/>
						<stop  offset="1" style="stop-color:#218E9B"/>
					</linearGradient>
					<path class="st29" d="M2827.95,1655.95v1.18c-10.32-14.09-28.81-33.67-39.88-45.01c-0.21-0.5-0.55-1-0.76-1.5
						c-6.18-14.82-14.51-30.86-25.39-46.87c-10.81-16.06-24.54-31.86-40.55-46.41c-1.92-1.89-4.13-3.55-6.18-5.34
						c-1.05-0.87-2.1-1.77-3.17-2.64l-1.55-1.33c-0.55-0.44-1.11-0.84-1.65-1.27c-2.2-1.67-4.39-3.35-6.61-5.04l-1.65-1.27
						l-1.74-1.18c-1.15-0.8-2.3-1.59-3.45-2.37c-4.54-3.29-9.44-6.13-14.21-9.14c-2.43-1.46-4.98-2.8-7.46-4.19
						c-1.22-0.69-2.48-1.4-3.73-2.08c-1.28-0.63-2.58-1.28-3.85-1.92c-20.46-10.33-42.78-17.81-65.68-21.92
						c-2.86-0.47-5.72-0.94-8.61-1.42c-2.87-0.4-5.79-0.65-8.65-0.99l-4.33-0.49l-4.35-0.24l-4.35-0.27
						c-1.44-0.07-2.87-0.22-4.33-0.19c-2.89-0.01-5.78-0.04-8.68-0.06c-0.71,0-1.47-0.04-2.14,0l-1.93,0.1l-3.86,0.21l-3.83,0.19
						c-0.34,0.01-0.57,0.01-1.02,0.04l-3.94,0.29l-5.26,0.37l-3.94,0.29l-0.66,0.04l-0.24,0.01c0,0.01-1.37,0,0.93,0.04l-8.51,1.25
						c-1.4,0.22-2.82,0.35-4.22,0.66l-4.17,0.84l-4.17,0.83l-2.08,0.41c-0.69,0.13-1.37,0.34-2.05,0.5
						c-2.73,0.69-5.45,1.37-8.17,2.08c-1.37,0.3-2.7,0.77-4.02,1.16l-3.98,1.25l-3.98,1.19l-3.89,1.43
						c-2.59,0.97-5.19,1.83-7.71,2.86c-2.51,1.06-5.03,2.12-7.52,3.2c-19.83,8.82-37.65,20.21-52.82,33.23l-2.86,2.39l-2.71,2.55
						c-1.8,1.68-3.66,3.29-5.37,5.01c-0.07,0.06-0.13,0.15-0.21,0.21c-3.33,3.45-6.71,6.69-9.7,10.26c-0.8,0.87-1.58,1.75-2.34,2.64
						l-1.18,1.3l-1.09,1.39c-1.46,1.8-2.9,3.61-4.35,5.4c-0.35,0.44-0.74,0.87-1.09,1.33l-0.99,1.39c-0.68,0.93-1.34,1.86-2,2.76
						c-1.3,1.86-2.71,3.57-3.88,5.48c-9.85,14.74-17.35,29.49-22.45,43.55c-5.15,14.04-8.2,27.2-9.95,38.83
						c-0.19,1.46-0.38,2.89-0.58,4.31c-0.16,1.4-0.44,2.77-0.5,4.14c-0.22,2.74-0.44,5.35-0.66,7.84c-0.15,2.54-0.15,4.97-0.25,7.25
						c-0.04,1.15-0.12,2.27-0.13,3.35c0.04,1.11,0.07,2.18,0.09,3.21c0.03,2.08,0.06,4.04,0.09,5.87c-0.01,0.52,0.07,0.78,0.1,1.14
						c0.04,0.34,0.09,0.68,0.13,1c0.06,0.65,0.15,0.56,0.21,1.15c0.04,0.5,0.1,0.74,0.15,0.74h97.05l-58.97,65.38l-137.09,149.94
						L2047.31,1671h103.1c0.15,0,0.31-1.77,0.47-3.16c0.4-2.99,0.83-5.91,1.3-9.47c0.27-1.77,0.5-3.42,0.78-5.32
						c0.15-0.93,0.28-1.81,0.43-2.79c0.13-0.96,0.27-1.99,0.46-2.83c0.72-3.57,1.47-7.33,2.27-11.34c0.43-1.99,0.84-4.02,1.28-6.12
						c0.47-2.09,1.03-4.22,1.59-6.4c1.12-4.35,2.21-8.92,3.57-13.62c1.44-4.67,2.95-9.52,4.5-14.57c0.75-2.54,1.74-5.03,2.65-7.61
						c0.93-2.54,1.89-5.15,2.86-7.8c8.01-21.01,18.93-43.89,33.54-66.89c14.55-23.01,33.08-45.94,55.08-67.2
						c2.67-2.73,5.62-5.22,8.46-7.83c1.44-1.28,2.87-2.58,4.32-3.88l2.2-1.95l2.24-1.86c3.02-2.46,6.07-4.95,9.11-7.45l2.3-1.86
						l2.39-1.77c1.61-1.19,3.2-2.37,4.81-3.55c6.3-4.82,13.06-9.17,19.78-13.65c3.39-2.18,6.9-4.22,10.39-6.32
						c1.72-1.03,3.48-2.06,5.23-3.13c1.8-0.97,3.6-1.95,5.4-2.92c28.69-15.72,60.39-27.64,93.29-34.78
						c4.11-0.81,8.26-1.64,12.38-2.45c4.13-0.77,8.33-1.3,12.49-1.93l6.25-0.88l6.3-0.62l6.28-0.6c2.09-0.19,4.17-0.43,6.28-0.5
						c4.19-0.19,8.39-0.69,12.59-0.88c1.03-0.04,2.09-0.44,3.14-0.44h3.16l6.27,0.35l6.27,0.21c2.09,0,4.19,0.28,6.27,0.38
						l12.46,0.75c2.83,0.04,0.97,0.07,1.7,0.09l0.32,0.04l0.66,0.07l1.3,0.18l2.62,0.32l5.22,0.65l2.62,0.32l1.3,0.16l1.61,0.22
						l6.61,0.97l6.6,1l3.27,0.52c1.08,0.18,2.03,0.41,3.07,0.62c4.02,0.86,8.05,1.72,12.07,2.57c2,0.4,3.98,0.97,5.96,1.49
						l5.94,1.58l5.9,1.58l5.82,1.84c3.86,1.25,7.74,2.43,11.53,3.79c3.79,1.42,7.55,2.83,11.31,4.25
						c29.83,11.85,57.04,27.67,80.44,46.09c1.47,1.14,2.93,2.29,4.39,3.42c1.43,1.18,2.83,2.37,4.23,3.58
						c2.8,2.39,5.62,4.69,8.32,7.14c5.32,5,10.63,9.79,15.48,14.98c1.24,1.27,2.45,2.55,3.69,3.8l1.81,1.89l1.74,1.96
						c2.31,2.62,4.6,5.23,6.86,7.81l1.7,1.95l1.62,2c1.05,1.34,2.12,2.67,3.17,4c2.09,2.67,4.29,5.2,6.18,7.96
						c10.69,14.43,19.74,29.06,27.23,43.48c3.66,7,6.91,13.98,9.79,20.86c8.89,21.02,14.6,41.03,18.19,58.85
						c0.4,2.24,0.83,4.44,1.22,6.6c0.38,2.15,0.84,4.26,1.09,6.37c0.56,4.2,1.12,8.23,1.64,12.1c0.44,3.89,0.68,7.64,1,11.19
						c0.13,1.77,0.31,3.49,0.41,5.2c0.06,1.68,0.41,3.33,0.49,4.95C2827.43,1650.02,2827.95,1653.1,2827.95,1655.95z"/>
					<linearGradient id="SVGID_22_" gradientUnits="userSpaceOnUse" x1="2574.9524" y1="1642.3049" x2="2714.1155" y2="1451.5815">
						<stop  offset="0" style="stop-color:#218E9B"/>
						<stop  offset="1" style="stop-color:#218E9B"/>
					</linearGradient>
					<path class="st30" d="M2827.95,1655.95v1.18c-10.32-14.09-28.81-33.67-39.88-45.01c-0.21-0.5-0.55-1-0.76-1.5
						c-6.18-14.82-14.51-30.86-25.39-46.87c-10.81-16.06-24.54-31.86-40.55-46.41c-1.92-1.89-4.13-3.55-6.18-5.34
						c-1.05-0.87-2.1-1.77-3.17-2.64l-1.55-1.33c-0.55-0.44-1.11-0.84-1.65-1.27c-2.2-1.67-4.39-3.35-6.61-5.04l-1.65-1.27
						l-1.74-1.18c-1.15-0.8-2.3-1.59-3.45-2.37c-4.54-3.29-9.44-6.13-14.21-9.14c-2.43-1.46-4.98-2.8-7.46-4.19
						c-1.22-0.69-2.48-1.4-3.73-2.08c-1.28-0.63-2.58-1.28-3.85-1.92c-20.46-10.33-42.78-17.81-65.68-21.92
						c-2.86-0.47-5.72-0.94-8.61-1.42c-2.87-0.4-5.79-0.65-8.65-0.99l-4.33-0.49l-4.35-0.24l-4.35-0.27
						c-1.44-0.07-2.87-0.22-4.33-0.19c-2.89-0.01-5.78-0.04-8.68-0.06c-0.71,0-1.47-0.04-2.14,0l-1.93,0.1l-3.86,0.21l-3.83,0.19
						c-0.34,0.01-0.57,0.01-1.02,0.04l-3.94,0.29l-5.26,0.37l-3.94,0.29l-0.66,0.04l-0.24,0.01c0,0.01-1.37,0,0.93,0.04l-8.51,1.25
						c-1.4,0.22-2.82,0.35-4.22,0.66l-4.17,0.84l-4.17,0.83l-2.08,0.41c-0.69,0.13-1.37,0.34-2.05,0.5
						c-2.73,0.69-5.45,1.37-8.17,2.08c-1.37,0.3-2.7,0.77-4.02,1.16l-3.98,1.25l-3.98,1.19l-3.89,1.43
						c-2.59,0.97-5.19,1.83-7.71,2.86c-2.51,1.06-5.03,2.12-7.52,3.2c-19.83,8.82-37.65,20.21-52.82,33.23l-2.86,2.39l-2.71,2.55
						c-1.8,1.68-3.66,3.29-5.37,5.01c-0.07,0.06-0.13,0.15-0.21,0.21c43.57-53.94,114.14-88.99,193.78-88.99
						c81.6,0,153.68,36.78,196.94,92.97c3.66,7,6.91,13.98,9.79,20.86c8.89,21.02,14.6,41.03,18.19,58.85
						c0.4,2.24,0.83,4.44,1.22,6.6c0.38,2.15,0.84,4.26,1.09,6.37c0.56,4.2,1.12,8.23,1.64,12.1c0.44,3.89,0.68,7.64,1,11.19
						c0.13,1.77,0.31,3.49,0.41,5.2c0.06,1.68,0.41,3.33,0.49,4.95C2827.43,1650.02,2827.95,1653.1,2827.95,1655.95z"/>
				</g>
			</g>
			<g>
				<linearGradient id="SVGID_23_" gradientUnits="userSpaceOnUse" x1="2460.7971" y1="2195.595" x2="2572.5054" y2="2309.2981">
					<stop  offset="0" style="stop-color:#FFC444"/>
					<stop  offset="0.9964" style="stop-color:#F36F56"/>
				</linearGradient>
				<path class="st31" d="M2506.14,2249.06c0,0,6.51-24.43,1.9-30.67c-4.61-6.24-32.84-31.21-30.12-23.07s6.78,13.57,6.78,13.57
					s-15.2,7.06-5.43,17.64s13.03,13.03,13.57,22.53C2493.38,2258.56,2499.62,2261.81,2506.14,2249.06z"/>
				<linearGradient id="SVGID_24_" gradientUnits="userSpaceOnUse" x1="2737.6912" y1="3275.646" x2="2736.7498" y2="3023.3977">
					<stop  offset="0" style="stop-color:#47BDA1"/>
					<stop  offset="0.9964" style="stop-color:#47BDA1"/>
				</linearGradient>
				<path class="st32" d="M2777.25,3303.33c0,0,3.45,21.12,3.01,28.64c-0.44,7.52-83.86,11.36-84.71,5.73s13.79-14.59,24.09-17.75
					c10.3-3.16,40.44-11.6,40.44-11.6L2777.25,3303.33z"/>
				
					<linearGradient id="SVGID_25_" gradientUnits="userSpaceOnUse" x1="-353.9128" y1="3350.8169" x2="-352.3546" y2="3219.9294" gradientTransform="matrix(0.9968 0.0799 -0.0799 0.9968 3383.1914 44.888)">
					<stop  offset="0" style="stop-color:#FFC444"/>
					<stop  offset="0.9964" style="stop-color:#F36F56"/>
				</linearGradient>
				<path class="st33" d="M2757,3282.27l2.66,26.27c0,0,9.69,6.4,18.23,1.46l4.27-28.59L2757,3282.27z"/>
				<linearGradient id="SVGID_26_" gradientUnits="userSpaceOnUse" x1="2886.4075" y1="3275.0908" x2="2885.4663" y2="3022.842">
					<stop  offset="0" style="stop-color:#47BDA1"/>
					<stop  offset="0.9964" style="stop-color:#47BDA1"/>
				</linearGradient>
				<path class="st34" d="M2926.09,3337.57c0,0,3.45,21.12,3.01,28.64c-0.44,7.52-83.87,11.36-84.71,5.73
					c-0.84-5.63,13.79-14.59,24.09-17.75c10.3-3.16,40.44-11.6,40.44-11.6L2926.09,3337.57z"/>
				
					<linearGradient id="SVGID_27_" gradientUnits="userSpaceOnUse" x1="-202.5636" y1="3352.6157" x2="-201.0053" y2="3221.7266" gradientTransform="matrix(0.9968 0.0799 -0.0799 0.9968 3383.1914 44.888)">
					<stop  offset="0" style="stop-color:#FFC444"/>
					<stop  offset="0.9964" style="stop-color:#F36F56"/>
				</linearGradient>
				<path class="st35" d="M2905.84,3316.51l2.66,26.27c0,0,9.69,6.4,18.23,1.46l4.27-28.59L2905.84,3316.51z"/>
				<linearGradient id="SVGID_28_" gradientUnits="userSpaceOnUse" x1="2767.2395" y1="2699.9319" x2="2859.6987" y2="3172.6282">
					<stop  offset="0" style="stop-color:#218E9B"/>
					<stop  offset="1" style="stop-color:#218E9B"/>
				</linearGradient>
				<path class="st36" d="M2772.14,2596.57c-9.64,19.55-19.29,39.1-28.93,58.65c-7.75,111.57-11.61,232.89-9.13,362.63
					c1.84,96.53,7,187.97,14.41,273.8c13.07-0.6,26.15-1.2,39.22-1.8c18.91-37.52,41.22-94.37,43.28-164.54
					c2.14-73.2-20.05-82.92-18.64-153c1.82-90.84,39.92-115.07,60.21-224.34c7.76-41.79,12.99-96.36,6.78-162.58
					C2843.6,2589.11,2807.87,2592.84,2772.14,2596.57z"/>
				
					<linearGradient id="SVGID_29_" gradientUnits="userSpaceOnUse" x1="-429.371" y1="2929.8696" x2="-290.0158" y2="2929.8696" gradientTransform="matrix(0.9968 0.0799 -0.0799 0.9968 3383.1914 44.888)">
					<stop  offset="0" style="stop-color:#218E9B"/>
					<stop  offset="1" style="stop-color:#218E9B"/>
				</linearGradient>
				<path class="st37" d="M2879.33,2585.38c-19.3,2.01-38.59,4.02-57.89,6.04c-34.74,60.45-44.43,123.36-38.34,151.19
					c8.62,39.37,31.44,51.99,30.18,91.52c-1.24,39.12-24.29,49.26-38.91,95.36c-10.12,31.92-7.45,61.27-1.69,118.67
					c11.59,115.61,39.51,150.97,16.13,188.87c-6.65,10.77-18.62,23.6-42.07,33.39c0.57,7.09,1.14,14.2,1.75,21.22
					c13.07-0.6,26.15-1.2,39.22-1.8c18.91-37.53,41.22-94.37,43.28-164.55c2.14-73.2-20.05-82.92-18.64-153
					c1.82-90.84,39.92-115.07,60.21-224.34C2880.31,2706.18,2885.54,2651.6,2879.33,2585.38z"/>
				
					<linearGradient id="SVGID_30_" gradientUnits="userSpaceOnUse" x1="-350.697" y1="2949.7759" x2="-139.1427" y2="2949.7759" gradientTransform="matrix(0.9968 0.0799 -0.0799 0.9968 3383.1914 44.888)">
					<stop  offset="0" style="stop-color:#218E9B"/>
					<stop  offset="1" style="stop-color:#218E9B"/>
				</linearGradient>
				<path class="st38" d="M2824.02,2631.76c18.1,98.71,34.09,204.35,46.57,316.39c15.06,135.28,23.1,262.81,26.26,381.22
					c14.35,0.41,28.7,0.81,43.05,1.22c56.55-111.87,60-187.71,51.85-237.1c-3.14-19.03-11.68-56.34-13.62-112.1
					c-1.36-38.87,1.12-68.45,4.22-104.01c6.79-77.97,15.03-94.99,16.22-154.63c1.11-55.97,1.34-84.29-14.63-100.82
					C2941.83,2578.38,2832.32,2627.91,2824.02,2631.76z"/>
				<linearGradient id="SVGID_31_" gradientUnits="userSpaceOnUse" x1="2631.3645" y1="2261.1848" x2="2787.3809" y2="3263.158">
					<stop  offset="0" style="stop-color:#FFC444"/>
					<stop  offset="0.9964" style="stop-color:#F36F56"/>
				</linearGradient>
				<path class="st39" d="M2513.65,2245.3c-9.54-0.67-19.09-1.33-28.63-2c-22.51,90.98-6.37,179.23,44.45,211.69
					c79.39,50.71,226.94-44.83,258.91-148.86c14.03-45.66,10.84-111.56-17.21-124.36c-7.79-3.55-19.87-4.11-46.04,10.59
					c-78.17,43.89-80.23,126.84-119.96,133.86C2587.49,2329.35,2558.96,2318.08,2513.65,2245.3z"/>
				
					<linearGradient id="SVGID_32_" gradientUnits="userSpaceOnUse" x1="-153.7067" y1="3339.0762" x2="2.3095" y2="4341.0488" gradientTransform="matrix(0.9968 0.0799 -0.0799 0.9968 3383.1914 44.888)">
					<stop  offset="0" style="stop-color:#FFC444"/>
					<stop  offset="0.9964" style="stop-color:#F36F56"/>
				</linearGradient>
				<path class="st40" d="M2732.22,2675.23c-13.75-22.81,3.52-44.82,7.45-88.04c4.45-48.99-14.42-57.15-33.08-138.33
					c-12.41-53.99-24.33-105.83-10.1-166.5c6.82-29.08,18.37-78.4,59.19-102.22c21.06-12.29,49.83-11.06,106.49-8.1
					c70.07,3.66,105.1,5.5,131.23,19.25c3.82,2.01,83.31,45.25,88.78,115.72c5.57,71.73-72.55,81.37-82.96,177.02
					c-4.68,42.94,3.66,108.98,9.07,151.82c5.19,41.13,8.76,51.66,0.65,64.11c-19.56,30.01-79.45,21.46-199.24,4.35
					C2762.71,2697.61,2742.48,2692.26,2732.22,2675.23z"/>
				
					<linearGradient id="SVGID_33_" gradientUnits="userSpaceOnUse" x1="74.4731" y1="2974.8848" x2="-397.6676" y2="2297.0586" gradientTransform="matrix(0.9968 0.0799 -0.0799 0.9968 3383.1914 44.888)">
					<stop  offset="0" style="stop-color:#FFC444"/>
					<stop  offset="0.9964" style="stop-color:#F36F56"/>
				</linearGradient>
				<path class="st41" d="M2914.48,2468.64c5.07,18.64,23.28,32.57,35.96,77.91c2.74,9.79,22.24,79.51-3.06,96.67
					c-14.61,9.91-27.73-8.87-63.18-11.32c-61.44-4.25-90.71,47.39-130.85,33.29c-6.96-2.45-16.16-7.67-25.34-19.65
					c-1.83,10.8-1.51,20.18,4.21,29.68c10.26,17.02,30.48,22.37,77.47,29.08c119.78,17.1,179.68,25.66,199.24-4.35
					c8.12-12.45,4.54-22.98-0.65-64.11c-5.41-42.84-13.74-108.88-9.07-151.82c10.42-95.65,88.53-105.29,82.96-177.02
					c-1.49-19.18-8.54-36.25-17.97-51.11C2965.11,2296,2898.56,2410.06,2914.48,2468.64z"/>
				<linearGradient id="SVGID_34_" gradientUnits="userSpaceOnUse" x1="3072.1001" y1="2522.9561" x2="2984.2637" y2="2641.6118">
					<stop  offset="0" style="stop-color:#FFC444"/>
					<stop  offset="0.9964" style="stop-color:#F36F56"/>
				</linearGradient>
				<path class="st42" d="M3039.64,2609.74l-19.83,12.66c-3.56-4.11-11.8-12.4-24.67-15.24c-14.5-3.19-31.14,1.38-31.53,6.01
					c-0.31,3.71,9.82,7.45,11.39,8.02c12.65,4.67,22.04,0.79,27.15,5.88c1.81,1.8,4.06,5.14,9.25,8.24
					c1.36,0.81,2.79,1.53,3.54,1.83c8.44,3.28,22.93-11.42,24.17-12.7L3039.64,2609.74z"/>
				
					<linearGradient id="SVGID_35_" gradientUnits="userSpaceOnUse" x1="28.9692" y1="3310.6333" x2="184.9857" y2="4312.6079" gradientTransform="matrix(0.9968 0.0799 -0.0799 0.9968 3383.1914 44.888)">
					<stop  offset="0" style="stop-color:#FFC444"/>
					<stop  offset="0.9964" style="stop-color:#F36F56"/>
				</linearGradient>
				<path class="st43" d="M2981.06,2349.71c-14.34-34.35-24.28-86.94-1.63-165.05c149.26,58.82,225.39,198.25,195.67,308.78
					c-24.5,91.12-113.65,135.5-133.53,144.84c-4.63-10.53-9.25-21.06-13.88-31.59c23.05-25.66,49.01-63.61,45.34-106.91
					C3067.94,2439.74,3010.1,2419.25,2981.06,2349.71z"/>
				
					<linearGradient id="SVGID_36_" gradientUnits="userSpaceOnUse" x1="-2113.8337" y1="3897.5801" x2="-2113.8337" y2="3762.6094" gradientTransform="matrix(0.7795 0.6265 -0.6265 0.7795 6912.228 513.4343)">
					<stop  offset="0" style="stop-color:#FFC444"/>
					<stop  offset="0.9964" style="stop-color:#F36F56"/>
				</linearGradient>
				<path class="st44" d="M2865.84,2101.37c0,0,1.18,26.11,9.28,45.67c7.32,17.67,45.85,28.78,53.66,32.73
					c7.81,3.94-14.63,15.48-37.17,17.74c-22.53,2.27-86.89-2.85-98.49-11.39c-11.6-8.54,9.32-7.9,25.41-13.81
					c16.08-5.9,25.38-37.36,22.55-51.64C2838.24,2106.38,2865.84,2101.37,2865.84,2101.37z"/>
				
					<linearGradient id="SVGID_37_" gradientUnits="userSpaceOnUse" x1="-323.3617" y1="2176.552" x2="-379.8166" y2="2033.1667" gradientTransform="matrix(0.9968 0.0799 -0.0799 0.9968 3383.1914 44.888)">
					<stop  offset="0" style="stop-color:#218E9B"/>
					<stop  offset="0.9964" style="stop-color:#218E9B"/>
				</linearGradient>
				<path class="st45" d="M2830.2,2091.9c-11.69-11.49-13.33-12.83-14.6-16.8c-5.11-15.94,7.25-37.77,23.47-43.14
					c0.84-0.28,11.72-3.76,15.87,0.96c3.53,4.01-1.66,9.54,0.8,17.26c2.31,7.23,8.58,7.77,20.19,17.25
					c9.57,7.81,15.51,12.66,16.88,19.49c2.83,14.07-14.21,34.47-29.29,33.92C2858.09,2120.63,2856.62,2117.86,2830.2,2091.9z"/>
				<g>
					
						<linearGradient id="SVGID_38_" gradientUnits="userSpaceOnUse" x1="-2209.239" y1="3858.6829" x2="-2146.1353" y2="3735.981" gradientTransform="matrix(0.7795 0.6265 -0.6265 0.7795 6912.228 513.4343)">
						<stop  offset="0" style="stop-color:#FFC444"/>
						<stop  offset="0.9964" style="stop-color:#F36F56"/>
					</linearGradient>
					<path class="st46" d="M2862.04,2123c0,0-12.43,14.07-31.36,9.42c-16.95-4.17-12.63-43.07-0.22-49.29
						c4.14-2.07,11.66-1.9,17.31,0.82c3.34,1.61,4.27,3.28,9.78,5.81c5.08,2.33,6.69,2,8.06,3.65c1.71,2.05,2.45,6.46-2.91,17.11
						c3.86-2.73,8.02-3.31,10.56-1.5c0.41,0.29,1.44,1.3,1.89,2.63C2876.77,2116.48,2871.76,2121.37,2862.04,2123z"/>
				</g>
			</g>
			<g>
				<linearGradient id="SVGID_39_" gradientUnits="userSpaceOnUse" x1="2133.022" y1="2221.2764" x2="1902.1093" y2="2295.3833">
					<stop  offset="0" style="stop-color:#FCB148"/>
					<stop  offset="0.0521" style="stop-color:#FDBA46"/>
					<stop  offset="0.1424" style="stop-color:#FFC244"/>
					<stop  offset="0.3183" style="stop-color:#FFC444"/>
					<stop  offset="0.4849" style="stop-color:#FDB946"/>
					<stop  offset="0.7754" style="stop-color:#F99C4D"/>
					<stop  offset="0.8658" style="stop-color:#F8924F"/>
					<stop  offset="1" style="stop-color:#F8924F"/>
				</linearGradient>
				<path class="st47" d="M2398.85,2212.9c0,107.12-83.76,191.39-190.82,188.1c-111.42-3.42-205.12-99.65-205.12-214.8
					c0-115.15,93.71-198.74,205.12-187.14C2315.09,2010.21,2398.85,2105.77,2398.85,2212.9z"/>
				<linearGradient id="SVGID_40_" gradientUnits="userSpaceOnUse" x1="2319.8169" y1="1991.4261" x2="2113.6724" y2="2446.2195">
					<stop  offset="0" style="stop-color:#FFDB44"/>
					<stop  offset="1" style="stop-color:#FEEF06"/>
				</linearGradient>
				<path class="st48" d="M2427.78,2203.66c0,107.12-83.76,191.39-190.82,188.1c-111.42-3.42-205.12-99.65-205.12-214.8
					c0-115.15,93.71-198.74,205.12-187.14C2344.02,2000.98,2427.78,2096.54,2427.78,2203.66z"/>
				<linearGradient id="SVGID_41_" gradientUnits="userSpaceOnUse" x1="2281.8965" y1="2471.6379" x2="2242.1204" y2="2254.343">
					<stop  offset="0" style="stop-color:#FCB148"/>
					<stop  offset="0.0521" style="stop-color:#FDBA46"/>
					<stop  offset="0.1424" style="stop-color:#FFC244"/>
					<stop  offset="0.3183" style="stop-color:#FFC444"/>
					<stop  offset="0.4849" style="stop-color:#FDB946"/>
					<stop  offset="0.7754" style="stop-color:#F99C4D"/>
					<stop  offset="0.8658" style="stop-color:#F8924F"/>
					<stop  offset="1" style="stop-color:#F8924F"/>
				</linearGradient>
				<path class="st49" d="M2419.38,2203.09c0,102.41-80.15,182.83-182.42,179.52c-106.24-3.44-195.45-95.27-195.45-204.99
					c0-109.72,89.2-189.52,195.45-178.64C2339.23,2009.46,2419.38,2100.69,2419.38,2203.09z"/>
				<linearGradient id="SVGID_42_" gradientUnits="userSpaceOnUse" x1="2197.5637" y1="2119.9221" x2="2361.4858" y2="2467.8977">
					<stop  offset="0" style="stop-color:#FCB148"/>
					<stop  offset="0.0521" style="stop-color:#FDBA46"/>
					<stop  offset="0.1424" style="stop-color:#FFC244"/>
					<stop  offset="0.3183" style="stop-color:#FFC444"/>
					<stop  offset="0.4849" style="stop-color:#FDB946"/>
					<stop  offset="0.7754" style="stop-color:#F99C4D"/>
					<stop  offset="0.8658" style="stop-color:#F8924F"/>
					<stop  offset="1" style="stop-color:#F8924F"/>
				</linearGradient>
				<path class="st50" d="M2413.36,2202.69c0,99.03-77.55,176.7-176.4,173.38c-102.55-3.44-188.55-92.14-188.55-197.99
					s86-182.95,188.55-172.56C2335.81,2015.53,2413.36,2103.66,2413.36,2202.69z"/>
				<g>
					<linearGradient id="SVGID_43_" gradientUnits="userSpaceOnUse" x1="2191.033" y1="2045.0422" x2="2273.4587" y2="2353.9595">
						<stop  offset="0" style="stop-color:#FFDB44"/>
						<stop  offset="1" style="stop-color:#FEEF06"/>
					</linearGradient>
					<path class="st51" d="M2235.95,2039.21L2235.95,2039.21c5.26,0.5,9.52,5.24,9.52,10.58v18.23c10.52,1.17,21.05,3,31.6,5.48
						c7.78,1.83,15.5,4,23.18,6.53c4.6,1.51,7.73,6.15,7.26,10.94l-2.24,22.86c-0.59,6.07-6.59,9.63-12.24,7.11
						c-5.05-2.25-10.24-4.18-15.55-5.79c-9.27-2.8-19.04-4.63-29.33-5.48l-2.69-0.22v52.22c27.44,7.68,47.59,18.01,60.62,31
						c12.96,12.93,19.42,29.04,19.42,48.38c0,20.92-7.14,37.67-21.47,50.3c-14.41,12.7-34.62,19.84-60.75,21.39v20.12
						c0,5.34-4.26,9.51-9.53,9.3l-0.17-0.01c-5.28-0.21-9.56-4.73-9.56-10.09v-19.85l-4.24-0.19c-12.25-0.55-23.98-1.8-35.19-3.75
						c-8.3-1.44-16.41-3.31-24.32-5.59c-4.78-1.38-8.07-5.94-7.63-10.84l2.63-29.39c0.57-6.35,6.95-10.05,12.99-7.67
						c7.04,2.78,14.17,5.12,21.39,7.02c11.25,2.97,22.65,4.87,34.2,5.71l0.17-58.08c-26.34-6.52-46.06-16.17-59.02-28.96
						c-13.02-12.85-19.55-29.29-19.55-49.28c0-20.69,7.08-36.66,21.19-47.86c14.04-11.15,34-16.7,59.74-16.68v-18.64
						C2226.39,2042.65,2230.67,2038.71,2235.95,2039.21z M2226.39,2108.91c-8.14,0.59-14.49,2.83-19.03,6.71
						c-4.55,3.89-6.83,9.11-6.83,15.67c0,6.21,2.11,11.41,6.32,15.58c4.2,4.16,10.72,7.49,19.54,9.97V2108.91z M2243.28,2214.09
						v53.26c8.85,0.02,15.64-2.1,20.37-6.33c4.73-4.23,7.09-10.2,7.09-17.93c0-7.04-2.19-12.89-6.59-17.53
						C2259.75,2220.91,2252.8,2217.08,2243.28,2214.09z"/>
				</g>
				<linearGradient id="SVGID_44_" gradientUnits="userSpaceOnUse" x1="2149.3381" y1="2142.4414" x2="2312.9299" y2="2489.7151">
					<stop  offset="0" style="stop-color:#FCB148"/>
					<stop  offset="0.0521" style="stop-color:#FDBA46"/>
					<stop  offset="0.1424" style="stop-color:#FFC244"/>
					<stop  offset="0.3183" style="stop-color:#FFC444"/>
					<stop  offset="0.4849" style="stop-color:#FDB946"/>
					<stop  offset="0.7754" style="stop-color:#F99C4D"/>
					<stop  offset="0.8658" style="stop-color:#F8924F"/>
					<stop  offset="1" style="stop-color:#F8924F"/>
				</linearGradient>
				<path class="st52" d="M2205.04,2226.94c5.96-58.86,60.06-83.78,53-137.93c-4.35-33.37-29.65-61.5-57.86-83.46
					c-85.59,8.98-151.77,79.84-151.77,172.53c0,105.85,86,194.54,188.55,197.99c9.96,0.33,19.68-0.18,29.14-1.42
					C2225.37,2334.12,2199.92,2277.51,2205.04,2226.94z"/>
			</g>
		</g>
		<g>
			<g>
				<g>
					<path class="st3" d="M1304.94,913.03c-33.24-40.28,87.04-110.46,134.52-111.01C1430.77,847.88,1338.33,953.48,1304.94,913.03z"
						/>
				</g>
				<g>
					<path class="st3" d="M1355.19,1212.18c-44.48-27.35,46.61-132.68,91.36-148.57
						C1453.16,1109.82,1399.87,1239.65,1355.19,1212.18z"/>
				</g>
				<g>
					<g>
						<g>
							<path class="st3" d="M1510.54,1909.06l-8.24,0.59c-14.9-205.76-165.31-614.52-545.47-931.47l5.28-6.34
								C1336.59,1284.05,1494.79,1694.31,1510.54,1909.06z"/>
						</g>
					</g>
					<g>
						<g>
							<path class="st3" d="M1232.11,1258.23l-7.57-3.29c119.62-274.83-25.12-561.99-26.59-564.86l7.34-3.78
								C1206.78,689.21,1353.32,979.75,1232.11,1258.23z"/>
						</g>
					</g>
					<g>
						<g>
							<path class="st3" d="M935.41,1127.21l3.47-7.49c0.88,0.41,89.55,40.53,184.84,8.84l2.61,7.83
								C1060.67,1158.23,981.62,1148.72,935.41,1127.21z"/>
						</g>
					</g>
					<g>
						<g>
							<path class="st3" d="M1467.34,1727.66c-290.64,13.34-436.74-178.01-451.5-187.03c1.13,0.83,0.84,0.69,2.24-7.85
								c13.45,2.19,154.69,200.13,448.88,186.63L1467.34,1727.66z"/>
						</g>
					</g>
					<g>
						<g>
							<path class="st3" d="M1216.57,1677.89l-8.21-0.87c11.78-111.4-84.59-256.96-85.57-258.42l6.86-4.59
								C1175.28,1482.51,1225.24,1595.93,1216.57,1677.89z"/>
						</g>
					</g>
					<g>
						<g>
							<path class="st3" d="M991.31,1001.07c-28.83,44.5-172.39-77.05-197.4-127.88C848.9,874.43,1020.23,956.43,991.31,1001.07z"/>
						</g>
					</g>
					<g>
						<g>
							<path class="st3" d="M1018.39,1147.45c-14.07,51.12-187.6-21.48-226.77-62.41
								C844.42,1069.64,1032.51,1096.15,1018.39,1147.45z"/>
						</g>
					</g>
					<g>
						<g>
							<path class="st3" d="M1151.47,1452.11c-42.04,30.97-105.51-92.98-103.45-140.42C1093.34,1322.9,1193.69,1421,1151.47,1452.11
								z"/>
						</g>
					</g>
					<g>
						<g>
							<path class="st3" d="M1143.53,1066.61c-48.31,19.81-79.72-115.85-66.18-161.36
								C1118.58,927.14,1192.06,1046.71,1143.53,1066.61z"/>
						</g>
					</g>
					<g>
						<g>
							<path class="st3" d="M1292.55,1676.92c-51.94,5.44-43.95-133.59-18.16-173.46
								C1307.8,1536.06,1344.71,1671.46,1292.55,1676.92z"/>
						</g>
					</g>
					<g>
						<g>
							<path class="st3" d="M1082.99,1597.17c-34.44,39.26-122.97-68.23-131.11-115.01
								C998.54,1483.4,1117.58,1557.74,1082.99,1597.17z"/>
						</g>
					</g>
					<g>
						<g>
							<path class="st3" d="M1217.91,732.87c-48.95,20.37-98.51-161.09-90.36-217.15C1172.19,547.87,1267.02,712.44,1217.91,732.87z
								"/>
						</g>
					</g>
				</g>
			</g>
		</g>
	</g>
</g>
</svg>
